<svg xmlns="http://www.w3.org/2000/svg" width="512" height="512" viewBox="0 0 512 512">
  <defs>
    <linearGradient id="bg" x1="0" y1="0" x2="512" y2="512" gradientUnits="userSpaceOnUse">
      <stop offset="0" stop-color="#181C2A"/>
      <stop offset="1" stop-color="#0E1119"/>
    </linearGradient>
    <linearGradient id="tag" x1="150" y1="150" x2="362" y2="362" gradientUnits="userSpaceOnUse">
      <stop offset="0" stop-color="#F0AE49"/>
      <stop offset="1" stop-color="#D98D2B"/>
    </linearGradient>
  </defs>
  <rect width="512" height="512" fill="url(#bg)"/>
  <g transform="translate(256 256) scale(0.72) translate(-256 -256)">
    <path d="M158 118 H330 C340 118 348 122 355 129 L388 162 C395 169 399 177 399 187 V358 C399 372 388 383 374 383 H158 C144 383 133 372 133 358 V143 C133 129 144 118 158 118 Z"
          fill="url(#tag)"/>
    <circle cx="180" cy="160" r="17" fill="#181C2A"/>
    <path d="M215 200 V330" stroke="#181C2A" stroke-width="26" stroke-linecap="round"/>
    <path d="M215 200 H300 C321 200 321 244 300 244 H215" fill="none" stroke="#181C2A" stroke-width="26" stroke-linecap="round" stroke-linejoin="round"/>
    <path d="M330 200 V330 M330 260 H295" stroke="#181C2A" stroke-width="26" stroke-linecap="round" stroke-linejoin="round"/>
  </g>
</svg>
